<?xml version="1.0" standalone="no"?>
<!DOCTYPE svg PUBLIC "-//W3C//DTD SVG 20010904//EN"
 "http://www.w3.org/TR/2001/REC-SVG-20010904/DTD/svg10.dtd">
<svg version="1.0" xmlns="http://www.w3.org/2000/svg"
 width="1280.000000pt" height="362.000000pt" viewBox="0 0 1280.000000 362.000000"
 preserveAspectRatio="xMidYMid meet">
<metadata>
Created by potrace 1.15, written by Peter Selinger 2001-2017
</metadata>
<g transform="translate(0.000000,362.000000) scale(0.100000,-0.100000)"
fill="#FFFFFF" stroke="none">
<path d="M8610 2665 c-7 -9 -9 -26 -5 -46 4 -18 4 -143 0 -278 l-7 -246 -172
-34 c-436 -85 -699 -124 -851 -125 -79 0 -191 17 -280 43 -33 10 -86 22 -117
25 -32 4 -60 12 -64 17 -3 5 -10 7 -15 4 -7 -5 -275 43 -287 51 -5 3 87 411
104 459 14 40 18 75 9 75 -14 0 -122 -85 -131 -103 -7 -12 -29 -103 -49 -202
-21 -99 -41 -189 -45 -201 -8 -19 -19 -22 -112 -28 -57 -3 -120 -9 -140 -12
-33 -5 -38 -4 -38 14 0 11 -13 31 -29 45 -35 29 -72 26 -100 -9 -16 -20 -21
-22 -31 -9 -6 7 -24 15 -38 17 -26 3 -28 7 -37 78 -12 89 -27 98 -74 45 -34
-40 -36 -50 -19 -140 l11 -63 -38 -45 c-35 -42 -43 -47 -106 -57 -49 -8 -78
-9 -106 -1 -62 18 -278 49 -428 61 -135 12 -144 11 -267 -14 -70 -14 -162 -37
-204 -51 -100 -33 -191 -33 -388 0 -151 26 -509 95 -514 100 -3 3 60 288 89
400 27 104 33 135 24 135 -7 0 -27 -15 -106 -80 -27 -23 -33 -38 -60 -165 -16
-77 -36 -173 -45 -212 l-15 -73 -67 -1 c-37 0 -100 -6 -139 -13 -71 -13 -73
-12 -79 8 -19 64 -87 86 -128 41 -21 -22 -25 -23 -36 -10 -7 8 -23 15 -35 15
-27 0 -32 10 -41 90 -4 33 -11 63 -16 66 -14 9 -56 -23 -74 -58 -15 -30 -15
-66 2 -135 6 -24 -13 -32 -246 -93 -113 -29 -114 -29 -204 -15 -129 20 -312
35 -442 35 -207 0 -496 -29 -656 -67 -55 -13 -79 -14 -134 -5 -61 10 -72 15
-106 54 -31 35 -37 48 -33 73 3 17 8 55 12 86 5 52 4 58 -27 92 -18 20 -38 37
-45 37 -12 0 -35 -95 -35 -143 0 -12 -9 -17 -29 -17 -16 0 -34 -6 -40 -14 -10
-12 -16 -10 -36 10 -44 44 -99 27 -123 -37 l-10 -26 -74 13 c-40 7 -101 13
-136 14 -75 0 -65 -19 -116 230 -21 102 -43 192 -50 200 -6 8 -37 34 -69 58
-66 49 -79 42 -53 -30 8 -24 24 -83 36 -133 11 -49 33 -144 48 -211 l28 -120
-187 -38 c-280 -55 -467 -86 -531 -86 l-58 0 0 -74 c0 -68 2 -74 23 -79 12 -3
119 -30 237 -60 185 -47 308 -70 507 -93 41 -5 42 -6 32 -31 -21 -57 -89 -427
-79 -437 16 -16 58 14 105 76 36 48 45 70 55 130 7 40 20 113 29 163 l16 90
55 7 c30 4 70 10 88 12 31 5 34 2 54 -39 28 -58 63 -73 112 -50 20 10 36 21
36 25 0 5 17 6 38 3 34 -5 42 -1 61 23 12 16 27 47 33 70 11 41 12 41 77 54
63 13 65 12 80 -9 16 -25 99 -91 113 -91 5 0 8 31 6 69 -1 39 0 73 4 76 10 10
54 8 198 -10 217 -26 470 -30 661 -12 457 45 468 46 539 33 62 -11 61 -9 54
-86 -4 -38 -4 -70 0 -70 17 0 54 26 98 68 l47 45 60 -14 61 -13 15 -53 c19
-66 61 -99 102 -80 20 9 27 8 34 -5 5 -8 22 -21 38 -27 41 -17 82 5 106 58 13
29 23 40 34 37 9 -3 46 -8 84 -12 37 -3 70 -10 72 -14 5 -8 24 -108 46 -244
12 -73 25 -99 84 -164 47 -52 71 -64 81 -39 4 12 -70 408 -82 442 -4 10 5 15
28 18 18 3 89 12 158 21 147 20 283 50 510 113 l165 45 175 -16 c96 -9 216
-16 265 -16 95 0 374 23 488 40 99 15 107 8 100 -80 -3 -39 -2 -70 2 -70 14 0
105 72 116 91 11 22 40 24 103 7 41 -11 44 -15 60 -65 19 -61 52 -89 91 -79
18 5 34 0 54 -15 55 -40 107 -21 137 49 13 32 16 33 51 28 21 -3 61 -8 89 -11
l51 -7 11 -61 c48 -283 46 -274 112 -350 28 -32 50 -47 66 -47 13 0 24 4 24 8
0 7 -75 387 -87 440 -5 20 -2 22 43 22 46 0 241 28 344 49 25 5 122 24 217 42
l172 33 108 -22 c59 -12 171 -36 248 -53 195 -42 393 -76 501 -84 l92 -7 -48
-97 c-26 -53 -69 -145 -95 -206 -26 -60 -58 -130 -70 -155 -12 -25 -26 -55
-29 -67 -23 -74 144 40 209 141 17 28 44 83 59 121 15 39 46 113 69 165 l42
95 85 11 c121 17 119 18 126 -13 12 -56 16 -64 40 -80 22 -14 28 -14 69 2 25
9 49 23 53 31 7 12 14 13 36 4 49 -18 113 34 148 119 13 32 19 36 88 53 70 17
76 17 85 1 18 -29 78 -94 97 -104 15 -8 20 -5 29 18 6 15 13 52 17 82 6 50 10
55 37 63 17 4 55 3 85 -2 30 -5 147 -16 260 -25 217 -17 348 -14 548 11 169
21 209 18 339 -21 247 -75 425 -111 700 -141 l43 -5 -14 -28 c-26 -49 -167
-475 -162 -487 8 -22 44 -3 97 51 74 76 85 96 130 240 76 245 66 223 107 229
20 3 62 8 93 12 l55 6 13 -41 c21 -73 83 -90 136 -37 17 17 27 21 40 14 41
-23 95 22 127 106 13 35 21 41 64 52 74 20 86 17 119 -29 31 -43 79 -77 91
-65 3 4 7 36 9 72 2 35 6 69 9 74 3 6 23 12 43 15 21 4 70 11 108 17 39 6 100
9 138 5 l67 -5 0 95 c0 94 0 95 -22 90 -13 -2 -61 -11 -108 -20 -47 -8 -108
-22 -137 -30 -45 -13 -60 -13 -119 -1 -38 8 -70 20 -72 26 -2 6 -15 24 -28 39
-29 35 -29 36 -3 122 12 39 18 80 15 94 -9 34 -50 79 -67 73 -8 -3 -20 -32
-27 -64 -22 -95 -28 -104 -61 -104 -17 0 -34 -7 -39 -16 -7 -13 -11 -12 -25 9
-25 38 -63 40 -103 5 -19 -17 -34 -36 -34 -43 0 -22 -11 -24 -90 -10 -41 8
-103 14 -137 14 l-62 1 -5 43 c-3 23 -8 118 -12 211 -3 93 -11 179 -16 190 -6
12 -34 40 -64 63 -48 38 -53 40 -59 23 -3 -10 -2 -36 4 -57 6 -21 15 -123 21
-228 6 -104 13 -205 16 -223 3 -21 1 -34 -8 -36 -30 -10 -424 -88 -553 -110
-237 -41 -284 -42 -396 -7 -122 37 -278 71 -349 75 -108 6 -511 -45 -622 -79
-41 -12 -58 -12 -119 -1 -38 8 -72 16 -74 18 -3 2 -17 23 -33 47 l-29 43 34
84 c31 76 33 88 23 120 -12 34 -54 73 -67 60 -4 -3 -21 -43 -39 -89 -28 -74
-34 -82 -56 -79 -13 1 -34 -7 -46 -18 -26 -25 -28 -25 -35 0 -3 11 -18 25 -34
31 -37 14 -85 -11 -115 -59 -17 -28 -25 -33 -47 -28 -14 4 -81 9 -148 13 -117
6 -121 7 -126 29 -2 13 0 110 6 217 5 107 7 205 4 219 -4 14 -31 46 -61 72
-45 38 -56 43 -66 31z m-1605 -755 c72 -16 146 -35 165 -43 31 -13 33 -15 15
-22 -11 -3 -27 -10 -36 -15 -26 -13 -226 -40 -324 -43 -87 -2 -89 -1 -98 23
-7 19 -2 39 18 82 l26 57 52 -6 c29 -3 111 -18 182 -33z m1613 -26 c12 -61 11
-67 -9 -95 -21 -30 -21 -30 -97 -24 -146 12 -257 25 -370 46 -91 17 -111 24
-100 34 7 7 112 31 233 53 121 23 229 43 240 46 11 2 36 4 55 5 l35 1 13 -66z
m2972 36 c0 -11 7 -37 16 -59 14 -36 14 -42 -1 -72 l-17 -32 -96 7 c-168 12
-453 59 -439 72 3 3 81 21 173 40 343 72 364 75 364 44z m-10753 -72 c17 -38
23 -65 19 -82 -6 -24 -11 -26 -61 -26 -101 0 -426 49 -464 70 -10 5 4 11 40
18 30 6 124 24 209 41 154 30 208 39 223 37 4 -1 20 -27 34 -58z m3440 11
c123 -23 221 -44 218 -47 -17 -17 -381 -72 -477 -72 -42 0 -50 3 -60 25 -9 20
-6 34 18 84 25 52 32 59 54 56 14 -2 125 -23 247 -46z m2133 -41 c0 -4 -9 -8
-20 -8 -15 0 -20 7 -20 27 0 25 0 26 20 8 11 -10 20 -22 20 -27z m2620 37 c0
-16 -26 -55 -37 -55 -18 0 -16 20 4 42 15 17 33 24 33 13z m2946 -30 c-4 -14
-13 -25 -21 -25 -19 0 -19 10 1 38 19 28 29 22 20 -13z m-10769 -52 c-3 -3
-13 -3 -21 -1 -15 3 -15 6 1 28 l18 25 3 -23 c2 -13 1 -26 -1 -29z m2430 1
c-12 -13 -37 6 -37 28 l0 22 22 -21 c12 -13 19 -25 15 -29z"/>
</g>
</svg>
